<svg xmlns="http://www.w3.org/2000/svg" width="15.75" height="18" viewBox="0 0 15.75 18">
  <path id="lock" d="M14.625,18H1.125a1.1,1.1,0,0,1-.791-.325,1.072,1.072,0,0,1-.334-.8V9a1.073,1.073,0,0,1,.334-.8,1.093,1.093,0,0,1,.791-.325H2.25V5.625A5.487,5.487,0,0,1,3.006,2.8,5.625,5.625,0,0,1,5.053.756,5.492,5.492,0,0,1,7.875,0,5.479,5.479,0,0,1,10.7.756,5.635,5.635,0,0,1,12.744,2.8,5.484,5.484,0,0,1,13.5,5.625v2.25h1.125A1.11,1.11,0,0,1,15.75,9v7.875A1.11,1.11,0,0,1,14.625,18Zm-9-1.125h4.5L8.7,13.342a2.326,2.326,0,0,0,1.028-.826A2.247,2.247,0,0,0,7.875,9,2.243,2.243,0,0,0,6.02,12.515a2.326,2.326,0,0,0,1.028.826ZM11.25,5.625a3.254,3.254,0,0,0-.984-2.39A3.247,3.247,0,0,0,7.883,2.25a3.27,3.27,0,0,0-2.39.984A3.242,3.242,0,0,0,4.5,5.625v2.25h6.75Z" fill="#fff"/>
</svg>
