<svg xmlns="http://www.w3.org/2000/svg" width="17.675" height="18.677" viewBox="0 0 17.675 18.677">
  <path id="local-florist" d="M8.838,19.072a7.389,7.389,0,0,1,2.578-5.649,8.949,8.949,0,0,1,6.26-2.356,7.37,7.37,0,0,1-2.578,5.67A8.992,8.992,0,0,1,8.838,19.072ZM2.532,8.649a2.039,2.039,0,0,1,1.427-2,2.1,2.1,0,0,1-.69-3.585A2.518,2.518,0,0,1,5.017,2.4,2.356,2.356,0,0,1,6.4,2.813V2.646a2.1,2.1,0,0,1,.714-1.584A2.437,2.437,0,0,1,8.838.395a2.437,2.437,0,0,1,1.726.667,2.1,2.1,0,0,1,.713,1.584v.167a2.569,2.569,0,0,1,3.13.25,2.1,2.1,0,0,1-.69,3.585,2.039,2.039,0,0,1,1.427,2,2.008,2.008,0,0,1-.736,1.564,2.7,2.7,0,0,1-3.129.271v.167a2.034,2.034,0,0,1-.714,1.564,2.479,2.479,0,0,1-1.726.646,2.484,2.484,0,0,1-1.726-.646A2.031,2.031,0,0,1,6.4,10.651v-.167a2.7,2.7,0,0,1-1.381.375,2.564,2.564,0,0,1-1.749-.646A2.01,2.01,0,0,1,2.532,8.649ZM8.838,4.4a2.437,2.437,0,0,0-1.726.667A2.1,2.1,0,0,0,6.4,6.648a2.036,2.036,0,0,0,.714,1.564,2.48,2.48,0,0,0,1.726.646,2.481,2.481,0,0,0,1.726-.646,2.032,2.032,0,0,0,.713-1.563,2.1,2.1,0,0,0-.714-1.584A2.433,2.433,0,0,0,8.837,4.4ZM0,11.067a8.946,8.946,0,0,1,6.26,2.356,7.39,7.39,0,0,1,2.578,5.649,8.992,8.992,0,0,1-6.26-2.335A7.37,7.37,0,0,1,0,11.067Z" transform="translate(0 -0.395)" fill="#fff"/>
</svg>
