<svg xmlns="http://www.w3.org/2000/svg" width="22.967" height="22.967" viewBox="0 0 22.967 22.967">
  <path id="Icon_awesome-facebook-square" data-name="Icon awesome-facebook-square" d="M20.507,2.25H2.461A2.461,2.461,0,0,0,0,4.711V22.757a2.461,2.461,0,0,0,2.461,2.461H9.5V17.409H6.267V13.734H9.5v-2.8c0-3.186,1.9-4.946,4.8-4.946a19.567,19.567,0,0,1,2.846.248V9.362h-1.6a1.838,1.838,0,0,0-2.072,1.986v2.386H17l-.564,3.675H13.47v7.808h7.036a2.461,2.461,0,0,0,2.461-2.461V4.711A2.461,2.461,0,0,0,20.507,2.25Z" transform="translate(0 -2.25)" fill="#fff"/>
</svg>
