<svg xmlns="http://www.w3.org/2000/svg" width="22.973" height="22.967" viewBox="0 0 22.973 22.967">
  <path id="Icon_awesome-instagram" data-name="Icon awesome-instagram" d="M11.484,7.833a5.889,5.889,0,1,0,5.889,5.889A5.879,5.879,0,0,0,11.484,7.833Zm0,9.717a3.828,3.828,0,1,1,3.828-3.828A3.835,3.835,0,0,1,11.484,17.55Zm7.5-9.958a1.373,1.373,0,1,1-1.373-1.373A1.37,1.37,0,0,1,18.987,7.592Zm3.9,1.394a6.8,6.8,0,0,0-1.855-4.812,6.842,6.842,0,0,0-4.812-1.855c-1.9-.108-7.58-.108-9.476,0a6.832,6.832,0,0,0-4.812,1.85A6.819,6.819,0,0,0,.075,8.981c-.108,1.9-.108,7.58,0,9.476a6.8,6.8,0,0,0,1.855,4.812,6.85,6.85,0,0,0,4.812,1.855c1.9.108,7.58.108,9.476,0a6.8,6.8,0,0,0,4.812-1.855,6.842,6.842,0,0,0,1.855-4.812c.108-1.9.108-7.575,0-9.471Zm-2.45,11.506a3.876,3.876,0,0,1-2.183,2.183c-1.512.6-5.1.461-6.77.461s-5.263.133-6.77-.461A3.876,3.876,0,0,1,2.53,20.491c-.6-1.512-.461-5.1-.461-6.77s-.133-5.263.461-6.77A3.876,3.876,0,0,1,4.714,4.768c1.512-.6,5.1-.461,6.77-.461s5.263-.133,6.77.461a3.876,3.876,0,0,1,2.183,2.183c.6,1.512.461,5.1.461,6.77S21.037,18.985,20.437,20.491Z" transform="translate(0.005 -2.238)" fill="#fff"/>
</svg>
