<svg xmlns="http://www.w3.org/2000/svg" width="36" height="36" viewBox="0 0 36 36">
  <g id="Group_15" data-name="Group 15" transform="translate(-519 -405)">
    <rect id="Rectangle_41" data-name="Rectangle 41" width="36" height="36" rx="4" transform="translate(519 405)" fill="#e63b15"/>
    <g id="Group_14" data-name="Group 14" transform="translate(-2430.743 886.983)">
      <g id="Group_13" data-name="Group 13" transform="translate(2955.328 -477)">
        <path id="Path_81" data-name="Path 81" d="M428.137,478.656v7.017a1.6,1.6,0,0,1-2.219-.671,3.21,3.21,0,0,0-3.818-1.471c-2.09.439-4.257.516-6.347.877a2.213,2.213,0,0,0-1.342,1.032c-.516.98-1.058,1.213-1.858.387-2.322-2.3-4.566-4.644-6.863-6.966-.542-.542-1.161-1.006-1.7-1.574-.9-.929-.7-1.471.49-1.935a1.893,1.893,0,0,0,1.084-1.187c.31-2.193.516-4.412.7-6.63a3.56,3.56,0,0,1,2.3-3.406,4.187,4.187,0,0,1,4.437.826,2.453,2.453,0,0,1,.49.7c.542-.258.877-.413,1.342-.645a15.1,15.1,0,0,1,1.213,1.032c2.735,2.735,5.444,5.469,8.178,8.2.542.542.542,1.006-.077,1.5-1.445,1.135-2.889,2.3-4.308,3.457.052.155.1.335.155.49,1.419.335,2.838.7,4.231,1.032C425.479,480,426.253,478.476,428.137,478.656ZM405.949,476.8c.671.542,1.161.955,1.806,1.5,3.019-3.07,5.934-6.011,8.8-8.9-.542-.645-.955-1.135-1.522-1.806C411.986,470.658,409.045,473.651,405.949,476.8Zm1.109-4.05c2.038-1.961,3.9-3.741,5.727-5.547a2.732,2.732,0,0,0-2.812-1.909,1.97,1.97,0,0,0-2.167,1.5C407.472,468.7,407.317,470.658,407.059,472.748Z" transform="translate(-403.428 -463.829)" fill="#fff"/>
        <path id="Path_82" data-name="Path 82" d="M493.851,551.9c.619.877,1.161,1.574,1.625,2.348a1.946,1.946,0,0,1-.413,2.657,1.888,1.888,0,0,1-2.5.026,1.927,1.927,0,0,1-.439-2.657A27.032,27.032,0,0,1,493.851,551.9Z" transform="translate(-468.988 -529.179)" fill="#fff"/>
      </g>
    </g>
  </g>
</svg>
