<svg xmlns="http://www.w3.org/2000/svg" width="36" height="36" viewBox="0 0 36 36">
  <g id="Group_17" data-name="Group 17" transform="translate(-599 -405)">
    <rect id="Rectangle_38" data-name="Rectangle 38" width="36" height="36" rx="4" transform="translate(599 405)" fill="#e63b15"/>
    <path id="Path_56" data-name="Path 56" d="M63.47,393.34a3.9,3.9,0,0,0-7.274.087,4.425,4.425,0,0,0-4.524-.709,4.5,4.5,0,0,0-2.484,5.011,4.575,4.575,0,0,0-3.729,4.167,4.625,4.625,0,0,0,4.66,4.568H70.17a3.686,3.686,0,0,0,2.733-2.457,3.837,3.837,0,0,0-2.289-4.421,2.355,2.355,0,0,0-2.349-3.464,3.447,3.447,0,0,0-1.553-2.706A3.5,3.5,0,0,0,63.47,393.34Z" transform="translate(557.758 30.655)" fill="#fff" stroke="#fff" stroke-miterlimit="10" stroke-width="1"/>
    <path id="Path_66" data-name="Path 66" d="M170.749,219.407a3.581,3.581,0,0,1,.564-2.032,4.974,4.974,0,0,0,.278-.487.936.936,0,0,0,0-.881q-.151-.3-.324-.579a3.714,3.714,0,0,1-.046-3.716,1.819,1.819,0,0,1,.425-.479.583.583,0,0,1,.834.108,1.031,1.031,0,0,1,.232,1.02,2.894,2.894,0,0,1-.162.386c-.077.178-.162.34-.232.525a.937.937,0,0,0,.031.68,2.624,2.624,0,0,0,.247.433,3.665,3.665,0,0,1,.023,4.079,2.681,2.681,0,0,0-.209.355,1.019,1.019,0,0,0-.023.966c.077.162.162.324.247.487a1.038,1.038,0,0,1-.448,1.468.626.626,0,0,1-.711-.232A3.137,3.137,0,0,1,170.749,219.407Z" transform="translate(443.014 197.422)" fill="#fff"/>
    <path id="Path_67" data-name="Path 67" d="M97.479,307.872a3.438,3.438,0,0,1-.556,1.877,4.3,4.3,0,0,0-.3.518,1.027,1.027,0,0,0-.008.865c.062.147.139.278.209.417a1.231,1.231,0,0,1,.178.8c-.093.7-.78,1.027-1.244.579a2.518,2.518,0,0,1-.61-1.089,3.608,3.608,0,0,1,.417-3.09c.093-.147.193-.3.278-.456a.992.992,0,0,0,.031-.85c-.077-.178-.17-.348-.263-.518a1.059,1.059,0,0,1,.409-1.491.619.619,0,0,1,.757.247A3.18,3.18,0,0,1,97.479,307.872Z" transform="translate(513.461 108.478)" fill="#fff"/>
    <path id="Path_69" data-name="Path 69" d="M97.479,307.872a3.438,3.438,0,0,1-.556,1.877,4.3,4.3,0,0,0-.3.518,1.027,1.027,0,0,0-.008.865c.062.147.139.278.209.417a1.231,1.231,0,0,1,.178.8c-.093.7-.78,1.027-1.244.579a2.518,2.518,0,0,1-.61-1.089,3.608,3.608,0,0,1,.417-3.09c.093-.147.193-.3.278-.456a.992.992,0,0,0,.031-.85c-.077-.178-.17-.348-.263-.518a1.059,1.059,0,0,1,.409-1.491.619.619,0,0,1,.757.247A3.18,3.18,0,0,1,97.479,307.872Z" transform="translate(527.934 105.478)" fill="#fff"/>
    <path id="Path_68" data-name="Path 68" d="M254.283,251.029a3.376,3.376,0,0,1-.765,2.279.589.589,0,0,1-.958.023,1.066,1.066,0,0,1-.209-1.221c.077-.162.162-.309.247-.464a1.027,1.027,0,0,0,.008-1.012c-.07-.139-.147-.278-.216-.409a1.033,1.033,0,0,1,.549-1.53.614.614,0,0,1,.564.224,3.07,3.07,0,0,1,.757,1.823C254.267,250.852,254.275,250.96,254.283,251.029Z" transform="translate(873.34 668.861) rotate(180)" fill="#fff"/>
  </g>
</svg>
