<svg xmlns="http://www.w3.org/2000/svg" width="36" height="36" viewBox="0 0 36 36">
  <g id="Group_16" data-name="Group 16" transform="translate(-559 -405)">
    <rect id="Rectangle_36" data-name="Rectangle 36" width="36" height="36" rx="4" transform="translate(559 405)" fill="#458031"/>
    <g id="Group_12" data-name="Group 12" transform="translate(-121.202 23.983)">
      <g id="Group_11" data-name="Group 11" transform="translate(687.188 386)">
        <g id="Warstwa_2" transform="translate(0.339 0.503)">
          <path id="Path_70" data-name="Path 70" d="M34.023,77.817c.311-.235.716-.154,1.331-.016a15.884,15.884,0,0,1,2.584.688,8.045,8.045,0,0,0,1.173.546,3.946,3.946,0,0,0,1.674.077c2.317-.324,3.652.3,8.157-.251.89-.109,1.335-.162,1.63-.235,1.4-.348,3.1-1.157,3.866-.922a.563.563,0,0,1,.311.2c.121.17.085.38,0,.8-.142.712-.218,1.047-.218,1.047-.17.736-.142.683-.2.894-.049.17-.15.449-.344,1a4.706,4.706,0,0,0-.235.72,3.554,3.554,0,0,0-.049.813,4.237,4.237,0,0,0,.061.534c.129.7.5,3.535.627,5.072.073.914.049,2.156,0,4.635a21.961,21.961,0,0,1-.142,2.9c-.324,1.549-.886,2.184-.627,3.381.077.344.15.429.408,1.4.174.655.239.991.36,1.63,0,0,.053.267.125,1.205.028.372.036.595-.093.688-.15.105-.392-.012-.546-.077-.793-.344-.8-.057-2.16-.469-.829-.251-.736-.332-1.407-.518a7.848,7.848,0,0,0-1.755-.267c-2.148-.113-7.288-.522-9.27-.061-.392.089-.768.186-.768.186-.679.174-.914.263-1.549.437-1.149.319-.95.194-1.488.376-.772.259-1.108.489-1.44.311a.85.85,0,0,1-.36-.453c-.057-.137-.085-.307.049-.971a6.148,6.148,0,0,1,.283-1.1,7.47,7.47,0,0,1,.437-.91c.392-.728.441-.679.534-.922.049-.125.117-.364-.142-1.784-.142-.781-.222-1.035-.328-1.767-.024-.178-.057-.4-.093-.752-.275-2.524-.311-4.477-.311-4.477-.028-1.557.032-2.718.049-2.973a18.6,18.6,0,0,1,.235-2.584c.3-1.46.72-2,.534-3.053a8.045,8.045,0,0,0-.311-1.157c-.162-.445-.247-.55-.518-1.238a7.305,7.305,0,0,1-.344-1.031A1.771,1.771,0,0,1,33.7,78.3.89.89,0,0,1,34.023,77.817Z" transform="translate(-33.632 -77.662)" fill="#fff"/>
        </g>
        <path id="Path_71" data-name="Path 71" d="M47.265,66.529a7.48,7.48,0,0,1-.777,3.248,1.52,1.52,0,0,1-.081.186,1.829,1.829,0,0,0-.194,1.331q.34,2.166.59,4.34c.146,1.27.267,2.544.324,3.822a22.5,22.5,0,0,1-.3,4.327c-.178,1.189-.388,2.374-.615,3.555a1.283,1.283,0,0,0,.113.857,8.564,8.564,0,0,1,.942,3.947,2.723,2.723,0,0,1-.049.441.544.544,0,0,1-.51.469,5.871,5.871,0,0,1-2.2-.146,13.44,13.44,0,0,1-2.338-.874,1.389,1.389,0,0,0-.538-.121c-3.2-.008-6.39,0-9.585-.016a4.46,4.46,0,0,0-1.7.328,10.435,10.435,0,0,1-4.368.825c-.388-.016-.6-.154-.659-.465a3.2,3.2,0,0,1-.057-.441,6.775,6.775,0,0,1,.417-2.633,10.556,10.556,0,0,1,.6-1.428,1.321,1.321,0,0,0,.065-.878c-.113-.813-.243-1.622-.352-2.435q-.206-1.559-.388-3.126a22.131,22.131,0,0,1-.162-3.87c.073-1.2.158-2.394.311-3.579.15-1.153.4-2.289.6-3.434a.732.732,0,0,0-.04-.384,10.861,10.861,0,0,1-.93-2.823,12.089,12.089,0,0,1-.053-1.755c0-.307.222-.485.558-.526a6.878,6.878,0,0,1,2.423.174,18.3,18.3,0,0,1,2.75.922.8.8,0,0,0,.291.061q4.926.006,9.848,0a1.132,1.132,0,0,0,.425-.105,12.58,12.58,0,0,1,3.539-.995,11.811,11.811,0,0,1,1.513-.04c.368,0,.566.243.595.655C47.277,66.137,47.265,66.331,47.265,66.529ZM26.445,91.936c.453-.053.882-.085,1.306-.162a13.932,13.932,0,0,0,2.989-.963.963.963,0,0,1,.368-.073c3.539,0,7.078,0,10.612-.008a2.08,2.08,0,0,1,.995.243,8.092,8.092,0,0,0,3.074.971c.283.024.324,0,.307-.287a5.649,5.649,0,0,0-.324-1.719c-.251-.639-.534-1.262-.8-1.893a.509.509,0,0,1-.04-.267c.146-.744.307-1.488.445-2.232a29.531,29.531,0,0,0,.546-5.092c.008-1.056-.016-2.115-.1-3.171-.1-1.177-.275-2.35-.429-3.527-.109-.833-.218-1.666-.36-2.5a2.291,2.291,0,0,1,.186-1.565,7.424,7.424,0,0,0,.849-2.423c.04-.279.049-.566.069-.861-.3.02-.546.024-.793.053a12.121,12.121,0,0,0-3.211.9,1.856,1.856,0,0,1-.643.2c-3.478.012-6.956.008-10.43.008a.792.792,0,0,1-.271-.057c-.663-.243-1.318-.5-1.986-.732a7.091,7.091,0,0,0-2.095-.4c-.263-.008-.3.016-.263.267a10.769,10.769,0,0,0,.3,1.618c.2.639.5,1.246.748,1.868a.869.869,0,0,1,.093.441c-.231,1.383-.506,2.762-.716,4.149-.138.91-.218,1.832-.267,2.75a31.123,31.123,0,0,0,.372,5.816c.2,1.48.421,2.956.623,4.437a.656.656,0,0,1-.049.328c-.3.752-.631,1.5-.922,2.257A3.79,3.79,0,0,0,26.445,91.936Z" transform="translate(-25.245 -65.228)" fill="#fff"/>
      </g>
    </g>
    <text id="P" transform="translate(568 421)" fill="#458031" font-size="10" font-family="ArialNarrow-Bold, Arial" font-weight="700"><tspan x="0" y="0">P</tspan></text>
    <text id="N" transform="translate(573 428)" fill="#458031" font-size="10" font-family="ArialNarrow-Bold, Arial" font-weight="700"><tspan x="0" y="0">N</tspan></text>
    <text id="K" transform="translate(580 436)" fill="#458031" font-size="10" font-family="ArialNarrow-Bold, Arial" font-weight="700"><tspan x="0" y="0">K</tspan></text>
  </g>
</svg>
