<svg xmlns="http://www.w3.org/2000/svg" width="36" height="36" viewBox="0 0 36 36">
  <g id="Group_20" data-name="Group 20" transform="translate(-542 -405)">
    <rect id="Rectangle_36" data-name="Rectangle 36" width="36" height="36" rx="4" transform="translate(542 405)" fill="#458031"/>
    <path id="Path_85" data-name="Path 85" d="M107.073,410.445a7.136,7.136,0,0,1,3.808.475,5.2,5.2,0,0,1,2.62,2.649c.4-.619.756-1.267,1.2-1.836a7.212,7.212,0,0,1,4.895-2.656,13.264,13.264,0,0,1,4.722.259c-.079.374-.137.742-.238,1.094-.187.691-.382,1.389-.612,2.066a6.367,6.367,0,0,1-4.571,4.24,13.9,13.9,0,0,1-3.211.562c-.461.022-.756-.209-.785-.6s.252-.691.727-.713a11.174,11.174,0,0,0,4.2-1.029,4.055,4.055,0,0,0,1.764-1.591,10.152,10.152,0,0,0,1.166-3.009c-.756-.022-1.461-.086-2.16-.05a6.328,6.328,0,0,0-4.938,2.332,8.351,8.351,0,0,0-1.44,2.951A6.345,6.345,0,0,0,114,417.1c-.029,1.821-.007,3.65-.007,5.471v.439h15.491a3.015,3.015,0,0,1,.36.007.627.627,0,0,1,.6.6.642.642,0,0,1-.554.684,2.422,2.422,0,0,1-.324.007H100.875a1.975,1.975,0,0,1-.36-.014.66.66,0,0,1-.533-.677.65.65,0,0,1,.6-.612,3.647,3.647,0,0,1,.4-.007h11.669V417.24a5.5,5.5,0,0,1-4.823-2.577A6.46,6.46,0,0,1,107.073,410.445Z" transform="translate(444.635 12.24)" fill="#fff" stroke="#fff" stroke-miterlimit="10" stroke-width="0.6"/>
    <path id="Path_86" data-name="Path 86" d="M58.977,175.66c-.075.037-.151.069-.221.106-1.26.7-2.538,1.386-3.781,2.117a4.166,4.166,0,0,1-2.857.519,1.839,1.839,0,0,1-1.487-1.461,1.55,1.55,0,0,1,.732-1.783c2.724-1.82,5.418-3.672,8.142-5.493a7.5,7.5,0,0,1,2.2-1.1,11.785,11.785,0,0,1,3.63-.233c2.369.09,4.739.164,7.1.3a28.415,28.415,0,0,0,4.245-.3c.743-.069,1.481-.164,2.218-.238.407-.042.668.132.7.434.023.286-.2.482-.592.524-1.707.191-3.415.413-5.128.556a20.5,20.5,0,0,1-2.346-.058c-2.642-.1-5.279-.212-7.921-.275a4.644,4.644,0,0,0-2.689.7q-3.145,2.056-6.278,4.133c-.912.609-1.8,1.249-2.7,1.879a.589.589,0,0,0-.244.815.818.818,0,0,0,.7.656,3.18,3.18,0,0,0,2.091-.439c1.429-.826,2.886-1.609,4.327-2.418a.973.973,0,0,0,.325-.312,1.951,1.951,0,0,1,1.405-.847c1.382-.249,2.776-.466,4.164-.693.505-.085,1.011-.159,1.516-.238a2.258,2.258,0,0,1,.256-.032.522.522,0,0,1,.627.418.514.514,0,0,1-.482.54c-.569.1-1.144.18-1.713.27-1.324.212-2.648.429-3.967.64-.012,0-.017.005-.029.005-.906.175-1.167.688-.732,1.439a.577.577,0,0,0,.662.307q1.89-.294,3.769-.6a7.927,7.927,0,0,1,3.572.291,7.147,7.147,0,0,0,6.679-1.027c.348-.265.662-.572,1.016-.826a2.112,2.112,0,0,1,.749-.365c.767-.18,1.545-.312,2.323-.46.366-.069.639.058.709.333.076.3-.093.529-.47.6-.738.153-1.475.286-2.207.445a1.272,1.272,0,0,0-.47.228c-.43.328-.836.677-1.266,1.005a6.853,6.853,0,0,1-3.316,1.291,8.546,8.546,0,0,1-4.164-.323,7.1,7.1,0,0,0-1.353-.286,9.347,9.347,0,0,0-2.846.233c-.918.143-1.824.318-2.741.439a1.52,1.52,0,0,1-1.469-.677A5.414,5.414,0,0,1,58.977,175.66Z" transform="translate(495.396 241.731)" fill="#fff" stroke="#fff" stroke-width="0.6"/>
  </g>
</svg>

