<svg xmlns="http://www.w3.org/2000/svg" width="15.712" height="16.52" viewBox="0 0 15.712 16.52">
  <path id="noteslistalt" d="M13.748,16.52H1.964a1.848,1.848,0,0,1-1.389-.6A2.04,2.04,0,0,1,0,14.455V4.13A2.043,2.043,0,0,1,.575,2.67a1.845,1.845,0,0,1,1.389-.6h.982V1.033A1.011,1.011,0,0,1,3.238.3a.94.94,0,0,1,.7-.3.919.919,0,0,1,.69.3,1.024,1.024,0,0,1,.284.734V2.065H6.874V1.033A1.011,1.011,0,0,1,7.166.3a.94.94,0,0,1,.7-.3.919.919,0,0,1,.69.3,1.024,1.024,0,0,1,.284.734V2.065H10.8V1.033A1.011,1.011,0,0,1,11.094.3a.94.94,0,0,1,.7-.3.919.919,0,0,1,.69.3,1.024,1.024,0,0,1,.284.734V2.065h.982a1.848,1.848,0,0,1,1.389.6,2.04,2.04,0,0,1,.575,1.46V14.455a2.043,2.043,0,0,1-.575,1.46A1.845,1.845,0,0,1,13.748,16.52ZM12.275,6.2H3.437a.461.461,0,0,0-.345.153.525.525,0,0,0,0,.726.461.461,0,0,0,.345.153h8.838a.461.461,0,0,0,.345-.153.525.525,0,0,0,0-.726A.461.461,0,0,0,12.275,6.2Zm0,3.1H3.437a.461.461,0,0,0-.345.153.525.525,0,0,0,0,.726.461.461,0,0,0,.345.153h8.838a.461.461,0,0,0,.345-.153.525.525,0,0,0,0-.726A.461.461,0,0,0,12.275,9.293Zm0,3.1H3.437a.461.461,0,0,0-.345.153.525.525,0,0,0,0,.726.461.461,0,0,0,.345.153h8.838a.461.461,0,0,0,.345-.153.525.525,0,0,0,0-.726A.461.461,0,0,0,12.275,12.39Z" fill="#fff"/>
</svg>
