<svg xmlns="http://www.w3.org/2000/svg" width="36" height="36" viewBox="0 0 36 36">
  <g id="Group_22" data-name="Group 22" transform="translate(-643 -405)">
    <rect id="Rectangle_42" data-name="Rectangle 42" width="36" height="36" rx="4" transform="translate(643 405)" fill="#458031"/>
    <g id="Group_21" data-name="Group 21" transform="translate(532.341 277.436)">
      <path id="Path_88" data-name="Path 88" d="M120.728,144.366h-3.216c-.018-.347-.048-.663-.054-.98-.03-1.853-.1-3.706-.06-5.553a20.418,20.418,0,0,1,.359-3.467,5.193,5.193,0,0,1,2.857-3.73,3.122,3.122,0,0,1,3.646.616,5.568,5.568,0,0,1,1.954,3.712,59.273,59.273,0,0,1,.227,9.1c-.006.251-.1.317-.335.311-.885-.012-1.775,0-2.66-.012-.239-.006-.329.048-.329.311.018,1.363.018,2.731.018,4.094,0,.191.042.281.251.311a.969.969,0,0,1,.789.657,8.179,8.179,0,0,1,.406,1.668,23.786,23.786,0,0,1-.132,4.471c-.078.974-.227,1.942-.251,2.917a2,2,0,0,1-2,2.032,2.574,2.574,0,0,1-1.632-.371,1.762,1.762,0,0,1-.879-1.417c-.161-1.895-.341-3.789-.49-5.684a8.877,8.877,0,0,1,.2-3.024,2.217,2.217,0,0,1,.317-.729,1.1,1.1,0,0,1,.586-.466c.418-.072.412-.3.406-.622-.006-1.255,0-2.51.006-3.765A3.428,3.428,0,0,0,120.728,144.366Zm1.225,13.424a.866.866,0,0,0-.861.849.849.849,0,0,0,1.7.024A.867.867,0,0,0,121.953,157.79Z" transform="translate(0)" fill="#fff"/>
      <path id="Path_89" data-name="Path 89" d="M350.374,167.571H347.2c.347-4.238.693-8.439,1.04-12.647a.076.076,0,0,0,.036-.006q.484,4.124.962,8.26h1.381q.457-4.124.914-8.254a.076.076,0,0,0,.036-.006c.078.747.155,1.5.233,2.253.2,1.942.4,3.879.61,5.822.006.072.1.191.155.191.412.018.831.006,1.273.006.323-2.779.646-5.535.962-8.29h.036c.389,4.208.777,8.415,1.171,12.665H352.77V172.2c.992.137,1.2.914,1.351,1.7a14.61,14.61,0,0,1,.1,3.753c-.09,1.428-.227,2.857-.329,4.285a2.238,2.238,0,0,1-3.114,1.877,2.076,2.076,0,0,1-1.47-1.943c-.149-1.763-.317-3.532-.448-5.3a9.226,9.226,0,0,1,.2-3.084,1.973,1.973,0,0,1,.311-.705,1.181,1.181,0,0,1,.61-.484c.412-.06.389-.287.389-.574,0-1.273.006-2.552.006-3.825C350.374,167.816,350.374,167.72,350.374,167.571Zm2.086,14.213a.866.866,0,0,0-.861-.849.857.857,0,0,0-.837.867.847.847,0,0,0,.843.831A.861.861,0,0,0,352.46,181.784Z" transform="translate(-216.078 -23.139)" fill="#fff"/>
    </g>
  </g>
</svg>


