<svg xmlns="http://www.w3.org/2000/svg" width="36" height="36" viewBox="0 0 36 36">
  <g id="Group_25" data-name="Group 25" transform="translate(-513 -453)">
    <g id="Group_23" data-name="Group 23">
      <rect id="Rectangle_44" data-name="Rectangle 44" width="36" height="36" rx="4" transform="translate(513 453)" fill="#458031"/>
      <path id="Path_93" data-name="Path 93" d="M135.833,243.685c-.029.048-.048.086-.067.114a.482.482,0,0,1-.448.248h-2.345a12.927,12.927,0,0,1-1.6,3.841l.591.591c.343.343.677.686,1.02,1.02a.585.585,0,0,1,.21.562,2.434,2.434,0,0,1-.219.257l-3.412,3.412a.585.585,0,0,1-.562.21c-.076-.067-.181-.143-.276-.238l-1.582-1.582a13.062,13.062,0,0,1-3.831,1.6V256.2a1.353,1.353,0,0,1-.124.21.471.471,0,0,1-.362.172H117.6c-.1-.1-.21-.21-.3-.315v-2.545a13.077,13.077,0,0,1-3.841-1.6L112,253.578l-.153.152a.519.519,0,0,1-.543.2,2.28,2.28,0,0,1-.248-.2l-3.431-3.431a.555.555,0,0,1-.191-.562,2.437,2.437,0,0,1,.219-.257c.524-.534,1.058-1.058,1.6-1.6a12.771,12.771,0,0,1-1.6-3.831h-2.545l-.3-.3v-5.366a.577.577,0,0,1,.438-.353h2.411a12.874,12.874,0,0,1,1.6-3.831c-.038-.038-.086-.1-.133-.143l-1.458-1.458c-.086-.086-.152-.181-.219-.257a.538.538,0,0,1,.2-.553q1.716-1.7,3.412-3.412c.086-.086.181-.152.257-.219a.556.556,0,0,1,.553.2c.477.486.963.963,1.439,1.439a1.243,1.243,0,0,1,.143.191,12.9,12.9,0,0,1,3.86-1.62v-2.488a.6.6,0,0,1,.419-.372h5.09a.418.418,0,0,1,.448.276c.01.029.038.048.057.067v2.507a13.292,13.292,0,0,1,3.841,1.6l.162-.162,1.42-1.42c.1-.1.2-.172.276-.238a.593.593,0,0,1,.572.21q1.7,1.716,3.412,3.412a2.271,2.271,0,0,1,.21.257.585.585,0,0,1-.21.562c-.5.486-.972.972-1.468,1.458l-.143.143a12.97,12.97,0,0,1,1.6,3.841h.248c.658,0,1.315.01,1.973,0a.561.561,0,0,1,.629.381C135.833,240.159,135.833,241.932,135.833,243.685Zm-24.485.619a.476.476,0,0,1-.048-.067c-.1-.286-.2-.562-.276-.858s-.143-.6-.181-.9a3.956,3.956,0,0,1-.076-.753c.01-.238-.01-.477,0-.724a8.219,8.219,0,0,1,.048-1.077c.048-.257.086-.524.133-.791a6.179,6.179,0,0,1,.2-.829,10.454,10.454,0,0,1,.62-1.563c.133-.267.286-.534.448-.791a9.194,9.194,0,0,1,1.22-1.563,4.917,4.917,0,0,1,.658-.6c.229-.162.429-.362.658-.524a9.154,9.154,0,0,1,1.277-.782,8.875,8.875,0,0,1,.934-.4,5.438,5.438,0,0,1,.9-.276,4.216,4.216,0,0,0,.6-.133,7.479,7.479,0,0,1,1.029-.162,3.458,3.458,0,0,1,.629-.009c.2,0,.4-.01.591,0a1.649,1.649,0,0,1,.61.038c.191.076.41-.029.591.086a3.6,3.6,0,0,1,1.01.21,9.062,9.062,0,0,1,1.82.724,5.913,5.913,0,0,0,.086-1,7.782,7.782,0,0,0-.1-1.687,8.329,8.329,0,0,0-1.039-.372c-.362-.1-.734-.191-1.115-.276-.086-.086-.172-.172-.276-.267V226.5h-3.993v2.43c-.124.124-.21.219-.3.3-.324.076-.639.124-.944.229a11.845,11.845,0,0,0-2.021.791c-.267.152-.562.267-.82.429a3.8,3.8,0,0,1-.82.448,2.626,2.626,0,0,1-.372-.172,3.586,3.586,0,0,1-.334-.324l-1.239-1.239-2.783,2.783,1.449,1.449a.579.579,0,0,1,.229.41c0,.029.048.057.057.067a1.062,1.062,0,0,1-.1.267,13.665,13.665,0,0,0-1.258,2.449c-.048.133-.086.276-.143.41a3.028,3.028,0,0,1-.133.381,1.378,1.378,0,0,0-.114.419,3.923,3.923,0,0,0-.143.658c-.114.114-.21.21-.315.324h-2.421v3.87a.615.615,0,0,0,.4.133c.686-.01,1.382,0,2.04,0,.114.1.219.2.286.257.067.248.114.457.172.677A9.381,9.381,0,0,0,111.348,244.3Zm4.441-3.279a2.517,2.517,0,0,0,.057.6,3.329,3.329,0,0,0,.181.81,3.558,3.558,0,0,0,.391.867,4.148,4.148,0,0,0,.6.81,5.927,5.927,0,0,0,.572.515,5.52,5.52,0,0,0,1.229.677c.219.1.457.086.677.191a4.919,4.919,0,0,1,.753.067q.315-.014.629-.057a4.766,4.766,0,0,0,.829-.191,4.21,4.21,0,0,0,.848-.381,3.792,3.792,0,0,0,.858-.639,5.406,5.406,0,0,0,.5-.543,3.507,3.507,0,0,0,.429-.7,2.1,2.1,0,0,0,.3-.848,3.9,3.9,0,0,0,.181-1.048,1.378,1.378,0,0,0,0-.343c-.01-.1-.057-.21-.057-.315a2.81,2.81,0,0,0-.181-.839,3.8,3.8,0,0,0-.391-.877,4.44,4.44,0,0,0-.562-.772c-.2-.191-.391-.391-.61-.562a3.32,3.32,0,0,0-.705-.429,1.925,1.925,0,0,0-.848-.3c-.1-.114-.238-.057-.362-.114a1.087,1.087,0,0,0-.362-.038c-.133-.01-.257-.029-.391-.029a4.658,4.658,0,0,0-.629.048,4.439,4.439,0,0,0-.8.181,3.557,3.557,0,0,0-.867.391,3.933,3.933,0,0,0-.791.581,5.241,5.241,0,0,0-.534.591,4.561,4.561,0,0,0-.667,1.258A4.271,4.271,0,0,0,115.789,241.026Zm5.156-5.442a5.087,5.087,0,0,1,2.831,1.2l2.135-2.135c-.114-.1-.267-.2-.4-.324a6.228,6.228,0,0,0-1.2-.791,6.818,6.818,0,0,0-1.468-.61,5.752,5.752,0,0,0-.82-.219,1.467,1.467,0,0,1-.41-.057,1.846,1.846,0,0,0-.381-.057c-.133-.019-.267-.038-.419-.057v2.983A.439.439,0,0,1,120.946,235.584Zm-4.156,1.21a5.771,5.771,0,0,1,1.23-.772c.1-.038.2-.067.3-.114a4.185,4.185,0,0,1,1.125-.305c.124-.029.257-.01.343-.1v-2.993a2.575,2.575,0,0,1-.334.067,4.038,4.038,0,0,0-.477.048c-.191.048-.381.076-.581.114s-.381.086-.572.143a8.557,8.557,0,0,0-1.163.438l-.686.372a6.251,6.251,0,0,0-1.306.963C115.37,235.384,116.075,236.079,116.79,236.794Zm-2.011,3.746c.019-.1.048-.191.067-.286s.048-.21.057-.315a3.566,3.566,0,0,1,.248-.9,4.509,4.509,0,0,1,.438-.886c.143-.21.3-.419.419-.6l-2.116-2.116a7.547,7.547,0,0,0-1.487,2.364,8.163,8.163,0,0,0-.62,2.735Zm1.277,4.022a4.455,4.455,0,0,1-.686-1.02c-.086-.162-.133-.343-.21-.505a4.185,4.185,0,0,1-.305-1.125.841.841,0,0,0-.1-.353h-2.993a1.19,1.19,0,0,1,.067.3,3.5,3.5,0,0,0,.057.543c.038.181.086.362.114.553s.086.381.143.572a8.975,8.975,0,0,0,.448,1.191c.114.229.248.438.372.658a6.635,6.635,0,0,0,.963,1.325C114.636,245.982,115.341,245.277,116.056,244.562Zm10.618,2.116a7.82,7.82,0,0,0,1.544-2.507,7.542,7.542,0,0,0,.543-2.44c.029-.076.038-.124.057-.181h-3a1.553,1.553,0,0,0-.067.286,3.487,3.487,0,0,1-.172.772,4.114,4.114,0,0,1-.21.572,3.17,3.17,0,0,1-.324.648c-.162.248-.334.486-.5.724C125.263,245.267,125.959,245.973,126.674,246.678Zm-.772.762-2.125-2.125a3.525,3.525,0,0,1-.448.362,6.067,6.067,0,0,1-1.306.62,2.961,2.961,0,0,1-.858.2.611.611,0,0,0-.353.1v2.974c.1-.019.2-.048.3-.057.153-.019.3-.019.448-.048l.467-.086c.162-.029.315-.086.477-.124a8.522,8.522,0,0,0,1.372-.477,8,8,0,0,0,.743-.4A6.972,6.972,0,0,0,125.9,247.44Zm.791-12.009-2.135,2.135a2.857,2.857,0,0,1,.362.448,6.551,6.551,0,0,1,.629,1.334,2.934,2.934,0,0,1,.2.953.59.59,0,0,0,.076.229h2.993a1.213,1.213,0,0,1-.067-.229,5.221,5.221,0,0,0-.048-.543c-.029-.152-.067-.315-.086-.477a3.857,3.857,0,0,0-.114-.448,7.19,7.19,0,0,0-.477-1.372c-.124-.248-.257-.505-.4-.743A9.273,9.273,0,0,0,126.693,235.431Zm-6.91,11.132a1.551,1.551,0,0,0-.286-.067,3.023,3.023,0,0,1-.772-.172,4.118,4.118,0,0,1-.572-.21,3.171,3.171,0,0,1-.648-.324c-.248-.162-.486-.334-.724-.5l-2.106,2.106a6.445,6.445,0,0,0,.839.667c.21.152.438.257.648.4a5.524,5.524,0,0,0,1.125.534,5.157,5.157,0,0,0,1.411.381c.1.114.248.019.343.067a.913.913,0,0,0,.353.057c.124.01.257.029.391.038Z" transform="translate(410.679 229.96)" fill="#fff" stroke="#fff" stroke-width="0.3"/>
      <path id="Path_94" data-name="Path 94" d="M230.569,362.376l.3-.3a3.555,3.555,0,0,1,3.183,1.668,9.116,9.116,0,0,1,.6-.734,4.459,4.459,0,0,1,.782-.553,3.446,3.446,0,0,1,1.792-.381.57.57,0,0,1,.343.419c0,.743.029,1.582-.01,2.411a3.031,3.031,0,0,1-.3,1.1,3.408,3.408,0,0,1-.8,1.134,2.921,2.921,0,0,1-.743.543,4.6,4.6,0,0,1-1.077.353,3.405,3.405,0,0,1-2.011-.248,3.569,3.569,0,0,1-1.134-.791,4.3,4.3,0,0,1-.553-.743,3.061,3.061,0,0,1-.21-.543,5.022,5.022,0,0,1-.133-.543,2.472,2.472,0,0,1-.048-.7c-.01-.677,0-1.353,0-2.03C230.56,362.443,230.56,362.433,230.569,362.376Z" transform="translate(296.909 106.417)" fill="#fff"/>
    </g>
  </g>
</svg>

