<svg xmlns="http://www.w3.org/2000/svg" width="36" height="36" viewBox="0 0 36 36">
  <g id="Group_26" data-name="Group 26" transform="translate(-513 -409.796)">
    <rect id="Rectangle_40" data-name="Rectangle 40" width="36" height="36" rx="4" transform="translate(513 409.796)" fill="#458031"/>
    <path id="Path_74" data-name="Path 74" d="M58.977,175.66c-.075.037-.151.069-.221.106-1.26.7-2.538,1.386-3.781,2.117a4.166,4.166,0,0,1-2.857.519,1.839,1.839,0,0,1-1.487-1.461,1.55,1.55,0,0,1,.732-1.783c2.724-1.82,5.418-3.672,8.142-5.493a7.5,7.5,0,0,1,2.2-1.1,11.785,11.785,0,0,1,3.63-.233c2.369.09,4.739.164,7.1.3a28.415,28.415,0,0,0,4.245-.3c.743-.069,1.481-.164,2.218-.238.407-.042.668.132.7.434.023.286-.2.482-.592.524-1.707.191-3.415.413-5.128.556a20.5,20.5,0,0,1-2.346-.058c-2.642-.1-5.279-.212-7.921-.275a4.644,4.644,0,0,0-2.689.7q-3.145,2.056-6.278,4.133c-.912.609-1.8,1.249-2.7,1.879a.589.589,0,0,0-.244.815.818.818,0,0,0,.7.656,3.18,3.18,0,0,0,2.091-.439c1.429-.826,2.886-1.609,4.327-2.418a.973.973,0,0,0,.325-.312,1.951,1.951,0,0,1,1.405-.847c1.382-.249,2.776-.466,4.164-.693.505-.085,1.011-.159,1.516-.238a2.258,2.258,0,0,1,.256-.032.522.522,0,0,1,.627.418.514.514,0,0,1-.482.54c-.569.1-1.144.18-1.713.27-1.324.212-2.648.429-3.967.64-.012,0-.017.005-.029.005-.906.175-1.167.688-.732,1.439a.577.577,0,0,0,.662.307q1.89-.294,3.769-.6a7.927,7.927,0,0,1,3.572.291,7.147,7.147,0,0,0,6.679-1.027c.348-.265.662-.572,1.016-.826a2.112,2.112,0,0,1,.749-.365c.767-.18,1.545-.312,2.323-.46.366-.069.639.058.709.333.076.3-.093.529-.47.6-.738.153-1.475.286-2.207.445a1.272,1.272,0,0,0-.47.228c-.43.328-.836.677-1.266,1.005a6.853,6.853,0,0,1-3.316,1.291,8.546,8.546,0,0,1-4.164-.323,7.1,7.1,0,0,0-1.353-.286,9.347,9.347,0,0,0-2.846.233c-.918.143-1.824.318-2.741.439a1.52,1.52,0,0,1-1.469-.677A5.414,5.414,0,0,1,58.977,175.66Z" transform="translate(466.396 246.527)" fill="#fff" stroke="#fff" stroke-width="0.6"/>
    <path id="Path_75" data-name="Path 75" d="M45.7,545.321v-.968h.279c1.433,0,2.861-.005,4.294.005a6.819,6.819,0,0,1,1.039.09,2.277,2.277,0,0,1,1.578.979,8.256,8.256,0,0,0,5.321,3.424,8.7,8.7,0,0,0,8.589-3.106q.165-.222.313-.445a2.076,2.076,0,0,1,1.782-.937c2.014-.021,4.022-.011,6.035-.011a.5.5,0,0,1,.1.021v.942h-.348c-1.787,0-3.581.016-5.368-.005a1.6,1.6,0,0,0-1.457.714,9.39,9.39,0,0,1-8.8,3.911,9.02,9.02,0,0,1-6.865-3.757,2.027,2.027,0,0,0-1.811-.863c-1.161.005-2.321,0-3.482,0C46.5,545.321,46.118,545.321,45.7,545.321Z" transform="translate(471.016 -107.075)" fill="#fff" stroke="#fff" stroke-width="1"/>
    <path id="Path_76" data-name="Path 76" d="M195.493,384.571c-.544-.246-1.065-.435-1.551-.7a3.506,3.506,0,0,1-1.729-3.939c.109-.441.24-.876.366-1.334a5.542,5.542,0,0,1,2.593,1.534,3.49,3.49,0,0,1,.716,2.925C195.8,383.552,195.636,384.033,195.493,384.571Z" transform="translate(333.216 47.766)" fill="#fff"/>
    <path id="Path_77" data-name="Path 77" d="M224.4,526.959a6.7,6.7,0,0,1-2.639.281,3.394,3.394,0,0,1-2.513-1.878c-.263-.532-.424-1.111-.647-1.7a6.865,6.865,0,0,1,2.593-.281,3.31,3.31,0,0,1,2.427,1.689A18.313,18.313,0,0,1,224.4,526.959Z" transform="translate(308.504 -88.788)" fill="#fff"/>
    <path id="Path_78" data-name="Path 78" d="M302.144,388.7a4.451,4.451,0,0,1,.441,3.9,3.536,3.536,0,0,1-1.4,1.614c-.406.246-.83.464-1.248.693-.824-1.6-1.208-3.154.074-4.752a4.141,4.141,0,0,1,.933-.79C301.319,389.118,301.737,388.923,302.144,388.7Z" transform="translate(232.951 38.337)" fill="#fff"/>
  </g>
</svg>
