<svg xmlns="http://www.w3.org/2000/svg" width="26.248" height="21.319" viewBox="0 0 26.248 21.319">
  <path id="Icon_awesome-twitter" data-name="Icon awesome-twitter" d="M23.55,8.694c.017.233.017.466.017.7A15.2,15.2,0,0,1,8.261,24.7,15.2,15.2,0,0,1,0,22.284a11.129,11.129,0,0,0,1.3.067,10.774,10.774,0,0,0,6.679-2.3,5.389,5.389,0,0,1-5.03-3.731,6.784,6.784,0,0,0,1.016.083,5.69,5.69,0,0,0,1.416-.183,5.38,5.38,0,0,1-4.314-5.28v-.067a5.418,5.418,0,0,0,2.432.683,5.388,5.388,0,0,1-1.666-7.2A15.291,15.291,0,0,0,12.924,9.993a6.073,6.073,0,0,1-.133-1.232A5.385,5.385,0,0,1,22.1,5.08a10.591,10.591,0,0,0,3.414-1.3,5.365,5.365,0,0,1-2.365,2.965,10.785,10.785,0,0,0,3.1-.833,11.564,11.564,0,0,1-2.7,2.781Z" transform="translate(0 -3.381)" fill="#fff"/>
</svg>
