<svg xmlns="http://www.w3.org/2000/svg" width="18.33" height="19.726" viewBox="0 0 18.33 19.726">
  <g id="person-outline" transform="translate(-3.747 -2.625)">
    <path id="Path_22" data-name="Path 22" d="M19.516,7.581c-.172,2.316-1.928,4.206-3.856,4.206S11.973,9.9,11.8,7.581A3.779,3.779,0,0,1,15.66,3.375,3.8,3.8,0,0,1,19.516,7.581Z" transform="translate(-2.748 0)" fill="none" stroke="#fff" stroke-linecap="round" stroke-linejoin="round" stroke-width="1.5"/>
    <path id="Path_23" data-name="Path 23" d="M12.912,21.375c-3.812,0-7.681,2.1-8.4,6.072a.736.736,0,0,0,.685.938H20.623a.736.736,0,0,0,.685-.938C20.593,23.478,16.724,21.375,12.912,21.375Z" transform="translate(0 -6.784)" fill="none" stroke="#fff" stroke-miterlimit="10" stroke-width="1.5"/>
  </g>
</svg>
