<svg xmlns="http://www.w3.org/2000/svg" width="36" height="36" viewBox="0 0 36 36">
  <g id="Group_18" data-name="Group 18" transform="translate(-639 -405)">
    <rect id="Rectangle_39" data-name="Rectangle 39" width="36" height="36" rx="4" transform="translate(639 405)" fill="#458031"/>
    <g id="Warstwa_1" transform="translate(557 -475.25)">
      <path id="Path_72" data-name="Path 72" d="M86.951,323.313c-.051-.015-.1-.022-.147-.037a.622.622,0,0,1,.022-1.226,4.031,4.031,0,0,1,.514-.037c.213,0,.426.007.639.007s.294-.044.352-.25a3.862,3.862,0,0,1,.94-1.637,3.277,3.277,0,0,1,1.924-.94,6.935,6.935,0,0,1,.778-.051.68.68,0,0,0,.639-.352,16.8,16.8,0,0,1,1.094-1.674,1.03,1.03,0,0,0,.073-.117.535.535,0,0,0,.051-.485,6.989,6.989,0,0,1-.4-2.577,7.272,7.272,0,0,1,.661-2.812c.242-.529.529-1.035.793-1.557.756-1.505,1.52-3.01,2.276-4.516.191-.374.374-.742.558-1.116a1.391,1.391,0,0,1,.162-.242.526.526,0,0,1,.617-.2,6.228,6.228,0,0,1,.6.264q2.038,1.035,4.075,2.085c.007,0,.007,0,.022.007.279-.551.565-1.1.852-1.667-.1-.051-.206-.1-.3-.162a3.272,3.272,0,0,1-.426-.279.524.524,0,0,1-.162-.6,6.111,6.111,0,0,1,.264-.595c.433-.859.866-1.718,1.307-2.57.411-.8.808-1.608,1.234-2.4a3.443,3.443,0,0,1,2.621-1.865,3.509,3.509,0,0,1,3.943,2.812c.029.154.044.308.066.455v.352a.124.124,0,0,0-.015.037,3.287,3.287,0,0,1-.33,1.263c-.279.595-.573,1.189-.866,1.777-.558,1.109-1.123,2.217-1.681,3.326-.088.176-.184.352-.286.521a.628.628,0,0,1-.485.308.749.749,0,0,1-.4-.088c-.169-.081-.338-.162-.514-.25-.286.573-.565,1.138-.852,1.7a.64.64,0,0,1,.073.044q2.082,1.046,4.156,2.1a3.158,3.158,0,0,1,.433.25.53.53,0,0,1,.228.58,1.262,1.262,0,0,1-.1.294q-1.641,3.216-3.275,6.439a11.446,11.446,0,0,1-1.079,1.8c-.11.147-.213.3-.323.455.007.015.007.022.015.029s.037.029.051.044a3.532,3.532,0,0,1,1.153,1.784.3.3,0,0,0,.316.257c.22.007.448,0,.668.007a4.252,4.252,0,0,1,.529.029.625.625,0,0,1,0,1.234c-.051.007-.1.022-.154.029C102.253,323.313,94.6,323.313,86.951,323.313Zm23.643-12.225c-1.329-.676-2.651-1.336-3.972-2.012a.533.533,0,0,1-.037.066l-.881,1.828a1.764,1.764,0,0,1-.316.514.6.6,0,0,1-.712.11.583.583,0,0,1-.338-.639,2.081,2.081,0,0,1,.154-.455c.22-.448.448-.888.675-1.336.529-1.043,1.057-2.078,1.586-3.121.081-.154.154-.308.235-.463-.573-.286-1.131-.573-1.7-.859-.1.2-.206.382-.3.573-.727,1.424-1.454,2.842-2.181,4.266a1.455,1.455,0,0,1-.323.47.6.6,0,0,1-.661.1.575.575,0,0,1-.367-.558,1.2,1.2,0,0,1,.162-.543c.294-.58.587-1.167.881-1.748.051-.1.1-.2.147-.3-1.322-.668-2.636-1.329-3.958-2-.051.081-.1.162-.14.242-.389.764-.771,1.52-1.16,2.284-.7,1.38-1.4,2.768-2.093,4.148a5.012,5.012,0,0,0-.485,1.41,6.174,6.174,0,0,0,.073,2.35c.037.176.1.352.147.543a.844.844,0,0,1,.1-.059c.2-.11.4-.22.6-.323a5.935,5.935,0,0,1,2.423-.631,6.8,6.8,0,0,1,1.924.228,6.036,6.036,0,0,1,2.834,1.593,7.218,7.218,0,0,1,1.424,2.078.416.416,0,0,0,.352.257q.584.055,1.167.088a.484.484,0,0,0,.433-.191c.037-.051.081-.1.117-.139a5.521,5.521,0,0,0,.742-1.013c.492-.954.984-1.909,1.476-2.871.338-.668.676-1.336,1.013-2.012C109.962,312.351,110.271,311.727,110.594,311.088Zm-3.333,10.9a1.267,1.267,0,0,1-.051-.154,2.079,2.079,0,0,0-.955-1.123,2.59,2.59,0,0,0-1.094-.25c-.4-.022-.8-.022-1.2-.037a.562.562,0,0,1-.558-.389c-.037-.088-.073-.176-.1-.272a5.116,5.116,0,0,0-9.531-.433c-.1.22-.176.455-.264.683a.585.585,0,0,1-.5.4c-.081.015-.162.015-.242.022H91.731a2.091,2.091,0,0,0-1.821,1,1.851,1.851,0,0,0-.242.551Zm2.827-19.81a.1.1,0,0,1,.022-.029c.338-.661.676-1.314,1.006-1.975a2.133,2.133,0,0,0,.191-1.4,2.2,2.2,0,0,0-2.423-1.8,2,2,0,0,0-1.542.918c-.3.477-.558.977-.83,1.468-.14.257-.272.529-.411.793C107.429,300.845,108.758,301.513,110.087,302.181Zm-4.552-.808c-.286.565-.573,1.123-.859,1.681,1.329.675,2.651,1.344,3.98,2.012.286-.565.565-1.123.852-1.689Q107.514,302.376,105.535,301.374Z" transform="translate(2.703 587.326)" fill="#fff"/>
    </g>
    <g id="Warstwa_2" transform="translate(644.583 427.573)">
      <path id="Path_73" data-name="Path 73" d="M91,574.246h2.314a3.731,3.731,0,0,1,1.489-2.77,3.686,3.686,0,0,1,2.89-.576,6.335,6.335,0,0,1,6.156-4.507,6.967,6.967,0,0,1,6.164,4.547,3.848,3.848,0,0,1,4.5,3.306H91Z" transform="translate(-91 -566.392)" fill="#fff" stroke="#fff" stroke-linejoin="round" stroke-miterlimit="10" stroke-width="3"/>
    </g>
  </g>
</svg>
