<svg xmlns="http://www.w3.org/2000/svg" width="36" height="36" viewBox="0 0 36 36">
  <g id="Group_24" data-name="Group 24" transform="translate(-468 -453)">
    <rect id="Rectangle_43" data-name="Rectangle 43" width="36" height="36" rx="4" transform="translate(468 453)" fill="#458031"/>
    <path id="Path_91" data-name="Path 91" d="M51.011,172.64c-.284-.237-.575-.486-.871-.729a.3.3,0,0,1,.03-.095,9.5,9.5,0,0,1,3.341-2.547,4.289,4.289,0,0,1,1.57-.373,12.786,12.786,0,0,0,5.443-1.208,10.433,10.433,0,0,1,3.116-.977,3.776,3.776,0,0,0,1.268-.539,52.367,52.367,0,0,0,4.839-3.453,3.476,3.476,0,0,0,1.522-2.926c.024-1.042.19-2.079.3-3.121.006-.083.012-.166.018-.326a5.118,5.118,0,0,0-.616.225,3.008,3.008,0,0,0-1.445,1.623,10.033,10.033,0,0,0-.421,1.38.74.74,0,0,1-.4.545,20.171,20.171,0,0,0-3.471,2.079,2.891,2.891,0,0,1-1.682.557c-.7,0-1.416-.095-2.12-.113-1.35-.041-2.7-.083-4.057-.071-1.1.006-2.209.095-3.311.142-.539.024-.776-.2-.758-.734a13.437,13.437,0,0,1,.894-4.413,8.216,8.216,0,0,1,2.008-2.825c.426-.415.835-.841,1.25-1.262a2.346,2.346,0,0,0,.426-2.553.984.984,0,0,0-.184.124,12.071,12.071,0,0,1-3.139,1.937,5.683,5.683,0,0,0-2.9,2.742,54.47,54.47,0,0,1-4.045,6.468,16.475,16.475,0,0,0-1.984,4.436c-.569,1.712-1.143,3.418-1.718,5.129-.053.166-.136.32-.219.509-.379-.172-.734-.338-1.09-.5.267-.758.539-1.493.794-2.239.616-1.818,1.185-3.655,1.842-5.461a10.991,10.991,0,0,1,1.143-2.227,85.087,85.087,0,0,0,4.549-7.345,5.276,5.276,0,0,1,1.54-1.735.553.553,0,0,0,.243-.438,7.324,7.324,0,0,1,2.322-5.123,6.144,6.144,0,0,1,5.177-1.552,3.133,3.133,0,0,1,2.186,1.445c.355.539.628,1.137.936,1.712.077.148.142.3.237.444a7.21,7.21,0,0,0-.515-4.377c.367-.178.729-.349,1.131-.545.2.557.385,1.09.575,1.641a1.982,1.982,0,0,0,.172-.142,6.926,6.926,0,0,1,4.7-1.943,16.11,16.11,0,0,1,2.067.1.591.591,0,0,1,.533.829,5.1,5.1,0,0,1-5.775,3.909c-.5-.065-.989-.178-1.5-.272-.077.533-.154,1.1-.231,1.623.646.124,1.279.219,1.9.379a6.4,6.4,0,0,1,2.286,1.149,4.367,4.367,0,0,1,1.724,3.424c.006.077.006.16.012.237a.353.353,0,0,0,.03.047c.166-.047.344-.095.521-.136a1.307,1.307,0,0,1,1.623,1.38c-.107,1.25-.243,2.494-.373,3.737a8.755,8.755,0,0,1-.107.883,3.045,3.045,0,0,1-1.019,1.795,41.922,41.922,0,0,1-5.781,4.265,6.442,6.442,0,0,1-2.12.788,10.4,10.4,0,0,0-2.156.693,15.122,15.122,0,0,1-3.9,1.232,8.454,8.454,0,0,1-1.587.136,4.508,4.508,0,0,0-3.127,1.119C52.083,171.657,51.568,172.149,51.011,172.64Zm3.015-20.79c.118-.053.207-.089.3-.13a11.522,11.522,0,0,0,2.772-1.795,1.2,1.2,0,0,1,1.966.634c.041.16.083.326.118.486a3.4,3.4,0,0,1-.894,3.329c-.521.527-1.037,1.054-1.564,1.576a5.874,5.874,0,0,0-1.433,2.18.466.466,0,0,0,.018.379,9.619,9.619,0,0,0,2.221,2.322,2.377,2.377,0,0,0,1.481.486c.865-.018,1.735.053,2.6.095.6.03,1.2.095,1.795.113a1.952,1.952,0,0,0,1.131-.367c1.054-.675,2.132-1.315,3.193-1.972a.573.573,0,0,0,.231-.308,6.177,6.177,0,0,1,1.161-2.4.777.777,0,0,0,.142-.255A3.374,3.374,0,0,0,68,152.484a6.173,6.173,0,0,0-3.613-1.114,1.728,1.728,0,0,1-1.576-.871c-.219-.361-.391-.752-.586-1.125-.261-.5-.486-1.013-.788-1.487A2.2,2.2,0,0,0,59.4,146.81c-.314.012-.634.03-.942.071A5.445,5.445,0,0,0,54.026,151.85Zm.515,9.589c.569-.03,1.06-.059,1.593-.089l-1.38-1.451C54.677,160.439,54.612,160.913,54.541,161.44Z" transform="translate(429.07 313.2)" fill="#fff" stroke="#fff" stroke-width="0.5"/>
  </g>
</svg>
